<?xml version="1.0" standalone="no"?>
<!DOCTYPE svg PUBLIC "-//W3C//DTD SVG 20010904//EN"
 "http://www.w3.org/TR/2001/REC-SVG-20010904/DTD/svg10.dtd">
<svg version="1.0" xmlns="http://www.w3.org/2000/svg"
 width="76.000000pt" height="76.000000pt" viewBox="0 0 76.000000 76.000000"
 preserveAspectRatio="xMidYMid meet">
<metadata>
Created by potrace 1.14, written by Peter Selinger 2001-2017
</metadata>
<g transform="translate(0.000000,76.000000) scale(0.100000,-0.100000)"
fill="#000000" stroke="none">
<path d="M301 708 c-5 -13 -7 -26 -4 -30 2 -4 -22 -21 -54 -37 -97 -49 -150
-114 -176 -212 -44 -169 65 -341 243 -387 104 -26 248 24 313 110 77 100 95
235 45 335 -15 28 -39 66 -55 83 -28 32 -105 83 -131 86 -20 3 -25 11 -26 41
-1 28 -2 28 -74 31 -68 3 -73 1 -81 -20z m180 -112 c69 -29 142 -113 152 -171
1 -11 5 -24 8 -30 6 -12 5 -37 -5 -90 -25 -130 -151 -226 -281 -212 -165 17
-269 167 -231 334 17 76 93 154 175 179 48 15 137 10 182 -10z"/>
<path d="M418 449 c-81 -41 -93 -54 -151 -166 -19 -37 -23 -52 -14 -56 7 -3
49 15 92 38 78 42 81 45 124 125 24 45 40 85 35 90 -5 4 -44 -9 -86 -31z"/>
</g>
</svg>
